<?xml version="1.0" encoding="utf-8"?>
<!-- Generator: Adobe Illustrator 16.0.0, SVG Export Plug-In . SVG Version: 6.00 Build 0)  -->
<!DOCTYPE svg PUBLIC "-//W3C//DTD SVG 1.1//EN" "http://www.w3.org/Graphics/SVG/1.1/DTD/svg11.dtd">
<svg version="1.1" id="Layer_1" xmlns="http://www.w3.org/2000/svg" xmlns:xlink="http://www.w3.org/1999/xlink" x="0px" y="0px"
	 width="142.3px" height="31px" viewBox="0 0 142.3 31" enable-background="new 0 0 142.3 31" xml:space="preserve">
<rect x="0.181" y="0.385" fill="#010101" width="142.119" height="30.988"/>
<path fill="#EE3724" d="M6.557,24.767L5.56,23.33H6.51l0.533,0.791l0.528-0.791h0.92l-0.997,1.419l1.12,1.613h-0.95l-0.634-0.956
	l-0.633,0.956H5.466L6.557,24.767z"/>
<path fill="#FFFFFF" d="M12.562,24.567H9.6V23.94h2.962V24.567z M12.562,25.822H9.6v-0.627h2.962V25.822z"/>
<path fill="#FFFFFF" d="M14.832,22.861h-0.833v-0.687h0.833V22.861z M13.999,23.33h0.833v3.032h-0.833V23.33z"/>
<path fill="#FFFFFF" d="M15.371,23.33h0.792v0.422h0.018c0.211-0.34,0.575-0.504,0.927-0.504c0.886,0,1.108,0.498,1.108,1.249v1.865
	h-0.833v-1.713c0-0.498-0.147-0.745-0.534-0.745c-0.452,0-0.645,0.252-0.645,0.868v1.59h-0.833V23.33z"/>
<path fill="#FFFFFF" d="M20.896,25.975h-0.012c-0.193,0.329-0.534,0.47-0.92,0.47c-0.915,0-1.361-0.786-1.361-1.625
	c0-0.815,0.452-1.571,1.343-1.571c0.358,0,0.71,0.152,0.903,0.452h-0.006h0.012v-1.525h0.833v4.188h-0.792V25.975z M20.168,23.876
	c-0.545,0-0.733,0.469-0.733,0.967c0,0.476,0.217,0.974,0.733,0.974c0.551,0,0.715-0.48,0.715-0.979
	C20.883,24.345,20.708,23.876,20.168,23.876z"/>
<path fill="#FFFFFF" d="M22.883,25.049c0.023,0.527,0.281,0.768,0.745,0.768c0.334,0,0.604-0.205,0.657-0.393h0.733
	c-0.235,0.716-0.733,1.021-1.419,1.021c-0.956,0-1.548-0.656-1.548-1.595c0-0.909,0.627-1.602,1.548-1.602
	c1.032,0,1.531,0.868,1.472,1.801H22.883z M24.238,24.521c-0.076-0.423-0.258-0.645-0.663-0.645c-0.527,0-0.68,0.41-0.691,0.645
	H24.238z"/>
<path fill="#FFFFFF" d="M25.446,23.33h0.792v0.387h0.012c0.199-0.322,0.527-0.469,0.903-0.469c0.95,0,1.378,0.769,1.378,1.63
	c0,0.81-0.446,1.566-1.332,1.566c-0.364,0-0.709-0.158-0.909-0.458h-0.011v1.443h-0.833V23.33z M27.698,24.855
	c0-0.481-0.193-0.979-0.727-0.979c-0.545,0-0.721,0.486-0.721,0.979c0,0.492,0.188,0.961,0.727,0.961
	C27.522,25.816,27.698,25.348,27.698,24.855z"/>
<path fill="#FFFFFF" d="M29.598,25.049c0.023,0.527,0.282,0.768,0.745,0.768c0.334,0,0.604-0.205,0.657-0.393h0.733
	c-0.234,0.716-0.733,1.021-1.419,1.021c-0.956,0-1.548-0.656-1.548-1.595c0-0.909,0.627-1.602,1.548-1.602
	c1.032,0,1.531,0.868,1.472,1.801H29.598z M30.952,24.521c-0.076-0.423-0.257-0.645-0.663-0.645c-0.527,0-0.68,0.41-0.692,0.645
	H30.952z"/>
<path fill="#FFFFFF" d="M32.16,23.33h0.792v0.422h0.018c0.211-0.34,0.575-0.504,0.927-0.504c0.886,0,1.108,0.498,1.108,1.249v1.865
	h-0.833v-1.713c0-0.498-0.147-0.745-0.534-0.745c-0.451,0-0.645,0.252-0.645,0.868v1.59H32.16V23.33z"/>
<path fill="#FFFFFF" d="M37.685,25.975h-0.012c-0.193,0.329-0.533,0.47-0.921,0.47c-0.915,0-1.36-0.786-1.36-1.625
	c0-0.815,0.452-1.571,1.343-1.571c0.358,0,0.71,0.152,0.903,0.452h-0.006h0.012v-1.525h0.833v4.188h-0.792V25.975z M36.957,23.876
	c-0.545,0-0.732,0.469-0.732,0.967c0,0.476,0.217,0.974,0.732,0.974c0.552,0,0.716-0.48,0.716-0.979
	C37.673,24.345,37.497,23.876,36.957,23.876z"/>
<path fill="#FFFFFF" d="M39.672,25.049c0.023,0.527,0.282,0.768,0.745,0.768c0.334,0,0.604-0.205,0.657-0.393h0.733
	c-0.234,0.716-0.733,1.021-1.419,1.021c-0.957,0-1.548-0.656-1.548-1.595c0-0.909,0.627-1.602,1.548-1.602
	c1.032,0,1.531,0.868,1.472,1.801H39.672z M41.027,24.521c-0.076-0.423-0.258-0.645-0.663-0.645c-0.527,0-0.68,0.41-0.692,0.645
	H41.027z"/>
<path fill="#FFFFFF" d="M42.235,23.33h0.792v0.422h0.018c0.211-0.34,0.575-0.504,0.927-0.504c0.886,0,1.108,0.498,1.108,1.249v1.865
	h-0.833v-1.713c0-0.498-0.146-0.745-0.534-0.745c-0.451,0-0.645,0.252-0.645,0.868v1.59h-0.833V23.33z"/>
<path fill="#FFFFFF" d="M46.651,23.33h0.61v0.557h-0.61v1.502c0,0.281,0.07,0.352,0.352,0.352c0.088,0,0.17-0.006,0.258-0.023v0.651
	c-0.141,0.023-0.323,0.029-0.487,0.029c-0.51,0-0.956-0.117-0.956-0.722v-1.789h-0.504V23.33h0.504v-0.908h0.833V23.33z"/>
<path fill="#FFFFFF" d="M47.566,22.175h0.833v4.188h-0.833V22.175z"/>
<path fill="#FFFFFF" d="M50.434,26.743c-0.182,0.487-0.469,0.687-1.044,0.687c-0.17,0-0.34-0.012-0.51-0.029v-0.687
	c0.158,0.012,0.323,0.035,0.487,0.029c0.287-0.029,0.381-0.329,0.287-0.568l-1.067-2.845h0.891l0.687,2.076h0.011l0.663-2.076h0.862
	L50.434,26.743z"/>
<path fill="#FFFFFF" d="M54.85,23.248c0.955,0,1.572,0.634,1.572,1.602c0,0.961-0.617,1.595-1.572,1.595
	c-0.95,0-1.566-0.634-1.566-1.595C53.284,23.882,53.899,23.248,54.85,23.248z M54.85,25.816c0.568,0,0.738-0.486,0.738-0.967
	c0-0.487-0.17-0.974-0.738-0.974c-0.563,0-0.733,0.486-0.733,0.974C54.116,25.33,54.286,25.816,54.85,25.816z"/>
<path fill="#FFFFFF" d="M56.726,23.33h0.792v0.563h0.012c0.152-0.382,0.563-0.646,0.967-0.646c0.06,0,0.13,0.012,0.183,0.029v0.774
	c-0.077-0.018-0.2-0.03-0.3-0.03c-0.61,0-0.821,0.44-0.821,0.974v1.367h-0.833V23.33z"/>
<path fill="#FFFFFF" d="M61.805,26.169c0,0.498-0.176,1.343-1.572,1.343c-0.598,0-1.296-0.281-1.337-0.974h0.828
	c0.076,0.311,0.328,0.417,0.621,0.417c0.463,0,0.674-0.317,0.669-0.751v-0.398h-0.012c-0.181,0.315-0.545,0.469-0.909,0.469
	c-0.909,0-1.296-0.692-1.296-1.525c0-0.786,0.452-1.501,1.302-1.501c0.399,0,0.704,0.135,0.903,0.486h0.012V23.33h0.792V26.169z
	 M61.013,24.808c0-0.492-0.17-0.932-0.709-0.932c-0.47,0-0.675,0.41-0.675,0.862c0,0.434,0.165,0.908,0.675,0.908
	C60.779,25.646,61.013,25.242,61.013,24.808z"/>
<path fill="#FFFFFF" d="M62.203,24.263c0.047-0.78,0.745-1.015,1.425-1.015c0.604,0,1.332,0.135,1.332,0.862v1.577
	c0,0.276,0.03,0.551,0.106,0.675H64.22c-0.029-0.094-0.052-0.193-0.059-0.294c-0.263,0.276-0.651,0.376-1.02,0.376
	c-0.575,0-1.032-0.287-1.032-0.909c0-0.686,0.516-0.851,1.032-0.921c0.51-0.076,0.985-0.059,0.985-0.399
	c0-0.356-0.246-0.41-0.54-0.41c-0.316,0-0.521,0.13-0.551,0.458H62.203z M64.126,24.878c-0.141,0.124-0.434,0.13-0.692,0.176
	c-0.258,0.054-0.492,0.142-0.492,0.446c0,0.311,0.24,0.387,0.51,0.387c0.651,0,0.674-0.516,0.674-0.698V24.878z"/>
<path fill="#FFFFFF" d="M65.487,23.33h0.792v0.422h0.018c0.211-0.34,0.575-0.504,0.926-0.504c0.886,0,1.109,0.498,1.109,1.249v1.865
	h-0.833v-1.713c0-0.498-0.147-0.745-0.534-0.745c-0.452,0-0.645,0.252-0.645,0.868v1.59h-0.833V23.33z"/>
<path fill="#FFFFFF" d="M69.587,22.861h-0.833v-0.687h0.833V22.861z M68.754,23.33h0.833v3.032h-0.833V23.33z"/>
<path fill="#FFFFFF" d="M69.938,25.734l1.577-1.776h-1.46V23.33h2.557v0.628l-1.577,1.776h1.689v0.628h-2.786V25.734z"/>
<path fill="#FFFFFF" d="M73.739,25.049c0.022,0.527,0.28,0.768,0.743,0.768c0.335,0,0.604-0.205,0.658-0.393h0.732
	c-0.234,0.716-0.732,1.021-1.419,1.021c-0.956,0-1.549-0.656-1.549-1.595c0-0.909,0.628-1.602,1.549-1.602
	c1.032,0,1.53,0.868,1.472,1.801H73.739z M75.093,24.521c-0.076-0.423-0.258-0.645-0.662-0.645c-0.528,0-0.681,0.41-0.691,0.645
	H75.093z"/>
<path fill="#FFFFFF" d="M78.466,25.975h-0.013c-0.193,0.329-0.533,0.47-0.92,0.47c-0.915,0-1.36-0.786-1.36-1.625
	c0-0.815,0.45-1.571,1.343-1.571c0.357,0,0.709,0.152,0.902,0.452h-0.006h0.012v-1.525h0.833v4.188h-0.791V25.975z M77.738,23.876
	c-0.546,0-0.733,0.469-0.733,0.967c0,0.476,0.218,0.974,0.733,0.974c0.551,0,0.715-0.48,0.715-0.979
	C78.453,24.345,78.277,23.876,77.738,23.876z"/>
<path fill="#FFFFFF" d="M82.294,22.949H81.04v-0.774h3.431v0.774h-1.255v3.413h-0.922V22.949z"/>
<path fill="#FFFFFF" d="M84.834,22.175h3.132v0.774h-2.212v0.896h2.029v0.716h-2.029v1.026h2.258v0.774h-3.178V22.175z"/>
<path fill="#FFFFFF" d="M88.399,22.175h1.807c1.085,0,1.899,0.68,1.899,2.07c0,1.214-0.621,2.117-1.899,2.117h-1.807V22.175z
	 M89.32,25.588h0.821c0.533,0,1.043-0.328,1.043-1.255c0-0.845-0.293-1.384-1.208-1.384H89.32V25.588z"/>
<path fill="#FFFFFF" d="M94.739,25.049c0.023,0.527,0.28,0.768,0.744,0.768c0.334,0,0.604-0.205,0.657-0.393h0.732
	c-0.234,0.716-0.732,1.021-1.419,1.021c-0.956,0-1.548-0.656-1.548-1.595c0-0.909,0.627-1.602,1.548-1.602
	c1.032,0,1.53,0.868,1.472,1.801H94.739z M96.093,24.521c-0.075-0.423-0.258-0.645-0.662-0.645c-0.528,0-0.681,0.41-0.691,0.645
	H96.093z"/>
<path fill="#FFFFFF" d="M98.861,26.362h-0.927l-1.038-3.032h0.874l0.639,2.07h0.013l0.64-2.07h0.826L98.861,26.362z"/>
<path fill="#FFFFFF" d="M100.685,25.049c0.024,0.527,0.282,0.768,0.745,0.768c0.335,0,0.604-0.205,0.657-0.393h0.733
	c-0.234,0.716-0.733,1.021-1.42,1.021c-0.955,0-1.548-0.656-1.548-1.595c0-0.909,0.628-1.602,1.548-1.602
	c1.032,0,1.531,0.868,1.473,1.801H100.685z M102.04,24.521c-0.076-0.423-0.258-0.645-0.662-0.645c-0.528,0-0.681,0.41-0.693,0.645
	H102.04z"/>
<path fill="#FFFFFF" d="M103.248,23.33h0.792v0.422h0.018c0.211-0.34,0.574-0.504,0.926-0.504c0.886,0,1.108,0.498,1.108,1.249
	v1.865h-0.832v-1.713c0-0.498-0.146-0.745-0.534-0.745c-0.451,0-0.645,0.252-0.645,0.868v1.59h-0.833V23.33z"/>
<path fill="#FFFFFF" d="M107.664,23.33h0.609v0.557h-0.609v1.502c0,0.281,0.07,0.352,0.352,0.352c0.088,0,0.17-0.006,0.258-0.023
	v0.651c-0.141,0.023-0.322,0.029-0.486,0.029c-0.51,0-0.956-0.117-0.956-0.722v-1.789h-0.505V23.33h0.505v-0.908h0.833V23.33z"/>
<g>
	<g>
		<path fill="#EE3724" d="M9.067,8.321H5.16V4.748h12.106v3.573H13.36v10.37H9.067V8.321z"/>
		<path fill="#EE3724" d="M17.933,4.748h11.752v3.573h-7.457v1.738h7.457v3.32h-7.457v1.737h7.458v3.574H17.933V4.748z"/>
		<path fill="#EE3724" d="M30.409,4.748h7.049c4.646,0,6.289,3.437,6.289,6.951c0,4.278-2.265,6.992-7.127,6.992h-6.21V4.748z
			 M34.704,15.116h1.68c2.676,0,3.067-2.167,3.067-3.478c0-0.877-0.275-3.318-3.38-3.318h-1.367V15.116z"/>
	</g>
	<g>
		<g>
			<path fill="#EE3724" d="M49.919,13.317l-1.31-2.172l-1.278,2.172h-3.147l2.988-4.394l-2.877-4.203h3.148l1.166,2.078l1.199-2.078
				h3.147l-2.876,4.203l2.989,4.394H49.919z"/>
		</g>
	</g>
</g>
<text transform="matrix(1 0 0 1 54.1094 18.4805)" fill="#FFFFFF" font-family="'Helvetica-Light'" font-size="19.0371">LPU</text>
</svg>
