<?xml version="1.0" encoding="utf-8"?>
<!-- Generator: Adobe Illustrator 21.0.0, SVG Export Plug-In . SVG Version: 6.00 Build 0)  -->
<svg version="1.1" id="Layer_1" xmlns="http://www.w3.org/2000/svg" xmlns:xlink="http://www.w3.org/1999/xlink" x="0px" y="0px"
	 viewBox="0 0 142.3 31" style="enable-background:new 0 0 142.3 31;" xml:space="preserve">
<style type="text/css">
	.st0{fill:#EE3724;}
	.st1{fill:#231F20;}
	.st2{font-family:'ArialMT';}
	.st3{font-size:19.0371px;}
</style>
<path class="st0" d="M6.6,24.8l-1-1.4h1L7,24.1l0.5-0.8h0.9l-1,1.4l1.1,1.6H7.7l-0.6-1l-0.6,1H5.5L6.6,24.8z"/>
<path class="st1" d="M12.6,24.6h-3v-0.6h3V24.6z M12.6,25.8h-3v-0.6h3V25.8z"/>
<path class="st1" d="M14.8,22.9H14v-0.7h0.8V22.9z M14,23.3h0.8v3H14V23.3z"/>
<path class="st1" d="M15.4,23.3h0.8v0.4h0c0.2-0.3,0.6-0.5,0.9-0.5c0.9,0,1.1,0.5,1.1,1.2v1.9h-0.8v-1.7c0-0.5-0.1-0.7-0.5-0.7
	c-0.5,0-0.6,0.3-0.6,0.9v1.6h-0.8C15.4,26.4,15.4,23.3,15.4,23.3z"/>
<path class="st1" d="M20.9,26L20.9,26c-0.2,0.3-0.5,0.5-0.9,0.5c-0.9,0-1.4-0.8-1.4-1.6c0-0.8,0.5-1.6,1.3-1.6
	c0.4,0,0.7,0.2,0.9,0.5h0h0v-1.5h0.8v4.2h-0.8V26z M20.2,23.9c-0.5,0-0.7,0.5-0.7,1c0,0.5,0.2,1,0.7,1c0.6,0,0.7-0.5,0.7-1
	C20.9,24.3,20.7,23.9,20.2,23.9z"/>
<path class="st1" d="M22.9,25c0,0.5,0.3,0.8,0.7,0.8c0.3,0,0.6-0.2,0.7-0.4H25c-0.2,0.7-0.7,1-1.4,1c-1,0-1.5-0.7-1.5-1.6
	c0-0.9,0.6-1.6,1.5-1.6c1,0,1.5,0.9,1.5,1.8C25.1,25,22.9,25,22.9,25z M24.2,24.5c-0.1-0.4-0.3-0.6-0.7-0.6c-0.5,0-0.7,0.4-0.7,0.6
	H24.2z"/>
<path class="st1" d="M25.4,23.3h0.8v0.4h0c0.2-0.3,0.5-0.5,0.9-0.5c1,0,1.4,0.8,1.4,1.6c0,0.8-0.4,1.6-1.3,1.6
	c-0.4,0-0.7-0.2-0.9-0.5h0v1.4h-0.8C25.4,27.4,25.4,23.3,25.4,23.3z M27.7,24.9c0-0.5-0.2-1-0.7-1c-0.5,0-0.7,0.5-0.7,1
	c0,0.5,0.2,1,0.7,1C27.5,25.8,27.7,25.3,27.7,24.9z"/>
<path class="st1" d="M29.6,25c0,0.5,0.3,0.8,0.7,0.8c0.3,0,0.6-0.2,0.7-0.4h0.7c-0.2,0.7-0.7,1-1.4,1c-1,0-1.5-0.7-1.5-1.6
	c0-0.9,0.6-1.6,1.5-1.6c1,0,1.5,0.9,1.5,1.8C31.8,25,29.6,25,29.6,25z M31,24.5c-0.1-0.4-0.3-0.6-0.7-0.6c-0.5,0-0.7,0.4-0.7,0.6H31
	z"/>
<path class="st1" d="M32.2,23.3H33v0.4h0c0.2-0.3,0.6-0.5,0.9-0.5c0.9,0,1.1,0.5,1.1,1.2v1.9h-0.8v-1.7c0-0.5-0.1-0.7-0.5-0.7
	c-0.5,0-0.6,0.3-0.6,0.9v1.6h-0.8V23.3z"/>
<path class="st1" d="M37.7,26L37.7,26c-0.2,0.3-0.5,0.5-0.9,0.5c-0.9,0-1.4-0.8-1.4-1.6c0-0.8,0.5-1.6,1.3-1.6
	c0.4,0,0.7,0.2,0.9,0.5h0h0v-1.5h0.8v4.2h-0.8C37.7,26.4,37.7,26,37.7,26z M37,23.9c-0.5,0-0.7,0.5-0.7,1c0,0.5,0.2,1,0.7,1
	c0.6,0,0.7-0.5,0.7-1C37.7,24.3,37.5,23.9,37,23.9z"/>
<path class="st1" d="M39.7,25c0,0.5,0.3,0.8,0.7,0.8c0.3,0,0.6-0.2,0.7-0.4h0.7c-0.2,0.7-0.7,1-1.4,1c-1,0-1.5-0.7-1.5-1.6
	c0-0.9,0.6-1.6,1.5-1.6c1,0,1.5,0.9,1.5,1.8C41.9,25,39.7,25,39.7,25z M41,24.5c-0.1-0.4-0.3-0.6-0.7-0.6c-0.5,0-0.7,0.4-0.7,0.6H41
	z"/>
<path class="st1" d="M42.2,23.3H43v0.4h0c0.2-0.3,0.6-0.5,0.9-0.5c0.9,0,1.1,0.5,1.1,1.2v1.9h-0.8v-1.7c0-0.5-0.1-0.7-0.5-0.7
	c-0.5,0-0.6,0.3-0.6,0.9v1.6h-0.8V23.3z"/>
<path class="st1" d="M46.7,23.3h0.6v0.6h-0.6v1.5c0,0.3,0.1,0.4,0.4,0.4c0.1,0,0.2,0,0.3,0v0.7c-0.1,0-0.3,0-0.5,0
	c-0.5,0-1-0.1-1-0.7v-1.8h-0.5v-0.6h0.5v-0.9h0.8V23.3z"/>
<path class="st1" d="M47.6,22.2h0.8v4.2h-0.8V22.2z"/>
<path class="st1" d="M50.4,26.7c-0.2,0.5-0.5,0.7-1,0.7c-0.2,0-0.3,0-0.5,0v-0.7c0.2,0,0.3,0,0.5,0c0.3,0,0.4-0.3,0.3-0.6l-1.1-2.8
	h0.9l0.7,2.1h0l0.7-2.1h0.9L50.4,26.7z"/>
<path class="st1" d="M54.8,23.2c1,0,1.6,0.6,1.6,1.6c0,1-0.6,1.6-1.6,1.6c-1,0-1.6-0.6-1.6-1.6C53.3,23.9,53.9,23.2,54.8,23.2z
	 M54.8,25.8c0.6,0,0.7-0.5,0.7-1c0-0.5-0.2-1-0.7-1c-0.6,0-0.7,0.5-0.7,1C54.1,25.3,54.3,25.8,54.8,25.8z"/>
<path class="st1" d="M56.7,23.3h0.8v0.6h0c0.2-0.4,0.6-0.6,1-0.6c0.1,0,0.1,0,0.2,0V24c-0.1,0-0.2,0-0.3,0c-0.6,0-0.8,0.4-0.8,1v1.4
	h-0.8V23.3z"/>
<path class="st1" d="M61.8,26.2c0,0.5-0.2,1.3-1.6,1.3c-0.6,0-1.3-0.3-1.3-1h0.8c0.1,0.3,0.3,0.4,0.6,0.4c0.5,0,0.7-0.3,0.7-0.8
	v-0.4h0c-0.2,0.3-0.5,0.5-0.9,0.5c-0.9,0-1.3-0.7-1.3-1.5c0-0.8,0.5-1.5,1.3-1.5c0.4,0,0.7,0.1,0.9,0.5h0v-0.4h0.8L61.8,26.2
	L61.8,26.2z M61,24.8c0-0.5-0.2-0.9-0.7-0.9c-0.5,0-0.7,0.4-0.7,0.9c0,0.4,0.2,0.9,0.7,0.9C60.8,25.6,61,25.2,61,24.8z"/>
<path class="st1" d="M62.2,24.3c0-0.8,0.7-1,1.4-1c0.6,0,1.3,0.1,1.3,0.9v1.6c0,0.3,0,0.6,0.1,0.7h-0.8c0-0.1-0.1-0.2-0.1-0.3
	c-0.3,0.3-0.7,0.4-1,0.4c-0.6,0-1-0.3-1-0.9c0-0.7,0.5-0.9,1-0.9c0.5-0.1,1-0.1,1-0.4c0-0.4-0.2-0.4-0.5-0.4c-0.3,0-0.5,0.1-0.6,0.5
	C63,24.3,62.2,24.3,62.2,24.3z M64.1,24.9C64,25,63.7,25,63.4,25.1c-0.3,0.1-0.5,0.1-0.5,0.4c0,0.3,0.2,0.4,0.5,0.4
	c0.7,0,0.7-0.5,0.7-0.7V24.9z"/>
<path class="st1" d="M65.5,23.3h0.8v0.4h0c0.2-0.3,0.6-0.5,0.9-0.5c0.9,0,1.1,0.5,1.1,1.2v1.9h-0.8v-1.7c0-0.5-0.1-0.7-0.5-0.7
	c-0.5,0-0.6,0.3-0.6,0.9v1.6h-0.8C65.5,26.4,65.5,23.3,65.5,23.3z"/>
<path class="st1" d="M69.6,22.9h-0.8v-0.7h0.8V22.9z M68.8,23.3h0.8v3h-0.8V23.3z"/>
<path class="st1" d="M69.9,25.7l1.6-1.8h-1.5v-0.6h2.6V24L71,25.7h1.7v0.6h-2.8V25.7z"/>
<path class="st1" d="M73.7,25c0,0.5,0.3,0.8,0.7,0.8c0.3,0,0.6-0.2,0.7-0.4h0.7c-0.2,0.7-0.7,1-1.4,1c-1,0-1.5-0.7-1.5-1.6
	c0-0.9,0.6-1.6,1.5-1.6c1,0,1.5,0.9,1.5,1.8C75.9,25,73.7,25,73.7,25z M75.1,24.5c-0.1-0.4-0.3-0.6-0.7-0.6c-0.5,0-0.7,0.4-0.7,0.6
	H75.1z"/>
<path class="st1" d="M78.5,26L78.5,26c-0.2,0.3-0.5,0.5-0.9,0.5c-0.9,0-1.4-0.8-1.4-1.6c0-0.8,0.4-1.6,1.3-1.6
	c0.4,0,0.7,0.2,0.9,0.5h0h0v-1.5h0.8v4.2h-0.8C78.5,26.4,78.5,26,78.5,26z M77.7,23.9c-0.5,0-0.7,0.5-0.7,1c0,0.5,0.2,1,0.7,1
	c0.6,0,0.7-0.5,0.7-1C78.5,24.3,78.3,23.9,77.7,23.9z"/>
<path class="st1" d="M82.3,22.9H81v-0.8h3.4v0.8h-1.3v3.4h-0.9C82.3,26.4,82.3,22.9,82.3,22.9z"/>
<path class="st1" d="M84.8,22.2H88v0.8h-2.2v0.9h2v0.7h-2v1H88v0.8h-3.2C84.8,26.4,84.8,22.2,84.8,22.2z"/>
<path class="st1" d="M88.4,22.2h1.8c1.1,0,1.9,0.7,1.9,2.1c0,1.2-0.6,2.1-1.9,2.1h-1.8V22.2z M89.3,25.6h0.8c0.5,0,1-0.3,1-1.3
	c0-0.8-0.3-1.4-1.2-1.4h-0.7V25.6z"/>
<path class="st1" d="M94.7,25c0,0.5,0.3,0.8,0.7,0.8c0.3,0,0.6-0.2,0.7-0.4h0.7c-0.2,0.7-0.7,1-1.4,1c-1,0-1.5-0.7-1.5-1.6
	c0-0.9,0.6-1.6,1.5-1.6c1,0,1.5,0.9,1.5,1.8C96.9,25,94.7,25,94.7,25z M96.1,24.5c-0.1-0.4-0.3-0.6-0.7-0.6c-0.5,0-0.7,0.4-0.7,0.6
	H96.1z"/>
<path class="st1" d="M98.9,26.4h-0.9l-1-3h0.9l0.6,2.1h0l0.6-2.1h0.8L98.9,26.4z"/>
<path class="st1" d="M100.7,25c0,0.5,0.3,0.8,0.7,0.8c0.3,0,0.6-0.2,0.7-0.4h0.7c-0.2,0.7-0.7,1-1.4,1c-1,0-1.5-0.7-1.5-1.6
	c0-0.9,0.6-1.6,1.5-1.6c1,0,1.5,0.9,1.5,1.8C102.9,25,100.7,25,100.7,25z M102,24.5c-0.1-0.4-0.3-0.6-0.7-0.6
	c-0.5,0-0.7,0.4-0.7,0.6H102z"/>
<path class="st1" d="M103.2,23.3h0.8v0.4h0c0.2-0.3,0.6-0.5,0.9-0.5c0.9,0,1.1,0.5,1.1,1.2v1.9h-0.8v-1.7c0-0.5-0.1-0.7-0.5-0.7
	c-0.5,0-0.6,0.3-0.6,0.9v1.6h-0.8C103.2,26.4,103.2,23.3,103.2,23.3z"/>
<path class="st1" d="M107.7,23.3h0.6v0.6h-0.6v1.5c0,0.3,0.1,0.4,0.4,0.4c0.1,0,0.2,0,0.3,0v0.7c-0.1,0-0.3,0-0.5,0
	c-0.5,0-1-0.1-1-0.7v-1.8h-0.5v-0.6h0.5v-0.9h0.8L107.7,23.3L107.7,23.3z"/>
<g>
	<g>
		<path class="st0" d="M9.1,8.3H5.2V4.7h12.1v3.6h-3.9v10.4H9.1V8.3z"/>
		<path class="st0" d="M17.9,4.7h11.8v3.6h-7.5v1.7h7.5v3.3h-7.5v1.7h7.5v3.6H17.9V4.7z"/>
		<path class="st0" d="M30.4,4.7h7c4.6,0,6.3,3.4,6.3,7c0,4.3-2.3,7-7.1,7h-6.2L30.4,4.7L30.4,4.7z M34.7,15.1h1.7
			c2.7,0,3.1-2.2,3.1-3.5c0-0.9-0.3-3.3-3.4-3.3h-1.4V15.1z"/>
	</g>
	<g>
		<g>
			<path class="st0" d="M49.9,13.3l-1.3-2.2l-1.3,2.2h-3.1l3-4.4l-2.9-4.2h3.1l1.2,2.1l1.2-2.1H53l-2.9,4.2l3,4.4H49.9z"/>
		</g>
	</g>
</g>
<text transform="matrix(1 0 0 1 54.1094 18.4805)" class="st1 st2 st3">LPU</text>
</svg>
